<svg viewBox="0 0 40 45" fill="none" xmlns="http://www.w3.org/2000/svg">
	<path d="M0 20C0 31.0462 8.955 40 20 40C31.0462 40 40 31.0462 40 20C40 8.955 31.0462 0 20 0C8.955 0 0 8.955 0 20Z" fill="#FFCC4D"/>
	<path d="M16.7579 13.125C16.7579 14.8513 15.6379 16.25 14.2579 16.25C12.8779 16.25 11.7579 14.8513 11.7579 13.125C11.7579 11.4 12.8779 10 14.2579 10C15.6379 10 16.7579 11.4 16.7579 13.125Z" fill="#664500"/>
	<path d="M30 14.375C30 16.1013 28.8813 17.5 27.5 17.5C26.12 17.5 25 16.1013 25 14.375C25 12.65 26.12 11.25 27.5 11.25C28.8813 11.25 30 12.65 30 14.375Z" fill="#664500"/>
	<path d="M9.58863 7.91625C9.38363 7.8075 9.20988 7.6375 9.09988 7.41875C8.82988 6.8825 9.04988 6.26 9.59113 6.0275C14.9236 3.74 19.2149 5.97375 19.3949 6.07C19.9361 6.35875 20.1549 7.005 19.8836 7.5125C19.6136 8.01875 18.9586 8.195 18.4174 7.91C18.2636 7.83 14.8774 6.12 10.5699 7.96875C10.2486 8.105 9.88613 8.075 9.58863 7.91625Z" fill="#664500"/>
	<path d="M15.9284 24.4654C15.7584 24.3066 15.6334 24.0991 15.5834 23.8579C15.4596 23.2716 15.8309 22.7254 16.4146 22.6404C22.1546 21.7929 25.7296 25.0516 25.8809 25.1904C26.3309 25.6079 26.3746 26.2866 25.9834 26.7091C25.5934 27.1291 24.9146 27.1316 24.4659 26.7166C24.3359 26.6016 21.5009 24.0816 16.8634 24.7654C16.5171 24.8166 16.1746 24.6954 15.9284 24.4654Z" fill="#664500"/>
	<path d="M23.0384 12.6038C22.8434 12.4813 22.6809 12.3 22.5859 12.0738C22.3521 11.5213 22.6146 10.9138 23.1696 10.7188C28.6459 8.79875 32.7759 11.3188 32.9496 11.4275C33.4684 11.7525 33.6421 12.4113 33.3384 12.9C33.0359 13.3875 32.3684 13.5188 31.8496 13.1975C31.6996 13.1063 28.4396 11.1713 24.0159 12.7225C23.6859 12.8375 23.3259 12.7825 23.0384 12.6038Z" fill="#664500"/>
	<path d="M19.0955 43.9148C19.0955 43.9148 20.6767 43.401 20.8817 42.2248C21.098 41.011 20.1017 40.766 20.1017 40.766C20.1017 40.766 21.403 40.506 21.5667 39.046C21.7205 37.671 20.4892 37.3423 20.4892 37.3423C20.4892 37.3423 21.7017 36.8423 21.7592 35.4185C21.8067 34.2198 20.5155 33.6335 20.5155 33.6335C20.5155 33.6335 26.813 32.1085 27.4592 31.9585C28.1042 31.8073 29.1105 31.1885 28.7967 29.8398C28.4855 28.4898 27.2917 28.4423 26.6742 28.586C26.0567 28.731 18.2442 30.5448 15.5492 31.1723C15.2617 31.2385 13.9142 31.5498 13.7505 31.5898C13.0755 31.7485 12.7692 31.451 13.2442 30.9498C13.8805 30.2798 14.2855 29.5385 14.428 28.3085C14.5767 27.0135 14.138 25.416 13.8867 24.7973C13.4192 23.646 12.6305 22.736 11.7192 22.4235C10.2967 21.936 9.28675 22.8248 9.79175 24.3748C10.5467 26.6935 10.053 28.5935 8.7505 29.741C5.68925 32.4373 4.26425 34.3598 5.213 38.4573C6.24675 42.926 10.6842 45.8023 15.153 44.7673C15.3892 44.7148 19.0955 43.9148 19.0955 43.9148Z" fill="#F4900C"/>
</svg>
